<svg width="24" height="21" viewBox="0 0 24 21" fill="none" xmlns="http://www.w3.org/2000/svg">
<path d="M17.6836 7.72287L12.9055 0.4647C12.6982 0.1549 12.3491 0 12 0C11.6509 0 11.3018 0.1549 11.0945 0.475764L6.31636 7.72287H1.09091C0.490909 7.72287 0 8.22076 0 8.82929C0 8.92887 0.0109091 9.02845 0.0436363 9.12803L2.81455 19.3846C3.06545 20.314 3.90545 21 4.90909 21H19.0909C20.0945 21 20.9345 20.314 21.1964 19.3846L23.9673 9.12803L24 8.82929C24 8.22076 23.5091 7.72287 22.9091 7.72287H17.6836ZM8.72727 7.72287L12 2.85458L15.2727 7.72287H8.72727ZM12 16.5743C10.8 16.5743 9.81818 15.5785 9.81818 14.3614C9.81818 13.1444 10.8 12.1486 12 12.1486C13.2 12.1486 14.1818 13.1444 14.1818 14.3614C14.1818 15.5785 13.2 16.5743 12 16.5743Z" fill="#005249"/>
</svg>
